<?xml version="1.0" encoding="iso-8859-1"?>
<!-- Generator: Adobe Illustrator 24.1.2, SVG Export Plug-In . SVG Version: 6.00 Build 0)  -->
<svg version="1.1" xmlns="http://www.w3.org/2000/svg" xmlns:xlink="http://www.w3.org/1999/xlink" x="0px" y="0px"
	 viewBox="0 0 48 48" style="enable-background:new 0 0 48 48;" xml:space="preserve">
<g id="Layer_10" style="display:none;">
	<g style="display:inline;opacity:0.05;">
		<circle style="fill:#FFFFFF;" cx="24" cy="24" r="19.5"/>
		<path d="M24,5c10.477,0,19,8.523,19,19s-8.523,19-19,19C13.523,43,5,34.477,5,24S13.523,5,24,5 M24,4C12.954,4,4,12.954,4,24
			s8.954,20,20,20c11.046,0,20-8.954,20-20S35.046,4,24,4L24,4z"/>
	</g>
	<g style="display:inline;opacity:0.05;">
		<rect x="6.5" y="6.5" style="fill:#FFFFFF;" width="35" height="35"/>
		<path d="M41,7v34H7V7H41 M42,6H6v36h36V6L42,6z"/>
	</g>
</g>
<g id="filled">
</g>
<g id="outlined">
</g>
<g id="rounded">
</g>
<g id="two_x5F_tone">
</g>
<g id="sharp">
</g>
<g id="win10">
</g>
<g id="ios_x5F_out">
</g>
<g id="ios_x5F_filled">
</g>
<g id="color">
	<rect x="12" y="16" transform="matrix(6.123234e-17 -1 1 6.123234e-17 -4 44)" style="fill:#FFFFFF;" width="16" height="16"/>
	<polygon style="fill:#1E88E5;" points="3,17 3,31 8,32 13,31 13,17 8,16 	"/>
	<path style="fill:#4CAF50;" d="M37,24v14c0,1.657-1.343,3-3,3H13l-1-5l1-5h14v-7l5-1L37,24z"/>
	<path style="fill:#FBC02D;" d="M37,10v14H27v-7H13l-1-5l1-5h21C35.657,7,37,8.343,37,10z"/>
	<path style="fill:#1565C0;" d="M13,31v10H6c-1.657,0-3-1.343-3-3v-7H13z"/>
	<polygon style="fill:#E53935;" points="13,7 13,17 3,17 	"/>
	<polygon style="fill:#2E7D32;" points="38,24 37,32.45 27,24 37,15.55 	"/>
	<path style="fill:#4CAF50;" d="M46,10.11v27.78c0,0.84-0.98,1.31-1.63,0.78L37,32.45v-16.9l7.37-6.22C45.02,8.8,46,9.27,46,10.11z"
		/>
</g>
<g id="fluent">
</g>
</svg>